<?xml version="1.0" standalone="no"?>
<!DOCTYPE svg PUBLIC "-//W3C//DTD SVG 20010904//EN"
 "http://www.w3.org/TR/2001/REC-SVG-20010904/DTD/svg10.dtd">
<svg version="1.0" xmlns="http://www.w3.org/2000/svg"
 width="832.000000pt" height="832.000000pt" viewBox="0 0 832.000000 832.000000"
 preserveAspectRatio="xMidYMid meet">
<metadata>
Created by potrace 1.11, written by Peter Selinger 2001-2013
</metadata>
<g transform="translate(0.000000,832.000000) scale(0.100000,-0.100000)"
fill="#000000" stroke="none">
<path d="M6537 8304 c-1 -1 -33 -5 -72 -8 -77 -8 -215 -38 -285 -62 -423 -149
-736 -468 -872 -889 -16 -49 -31 -106 -34 -125 -6 -42 -12 -75 -14 -75 -11 0
-16 -276 -7 -360 5 -51 11 -83 31 -180 1 -5 5 -16 9 -22 5 -7 6 -13 3 -13 -11
0 57 -178 101 -262 24 -47 68 -122 97 -165 70 -104 136 -220 128 -227 -3 -3 0
-6 6 -6 5 0 18 -21 28 -47 10 -27 21 -52 24 -58 19 -27 76 -218 86 -285 2 -14
7 -46 12 -71 10 -50 8 -255 -3 -304 -3 -16 -11 -48 -17 -70 -6 -22 -11 -44
-13 -50 -3 -12 -34 -79 -60 -125 -11 -19 -20 -37 -20 -40 -4 -21 -143 -227
-199 -295 -99 -121 -232 -254 -321 -319 -22 -17 -42 -32 -45 -35 -3 -4 -27
-22 -55 -41 -27 -19 -51 -38 -53 -42 -2 -4 -8 -8 -13 -8 -6 0 -15 -5 -22 -10
-7 -6 -52 -42 -102 -81 -186 -147 -417 -370 -530 -514 -16 -21 -35 -43 -40
-49 -6 -6 -42 -53 -80 -104 -38 -51 -73 -91 -77 -90 -4 2 -33 37 -65 79 -199
262 -450 497 -792 744 -111 80 -321 274 -392 360 -80 99 -188 259 -226 335 -9
19 -21 38 -26 41 -5 3 -8 9 -7 13 0 3 -9 28 -20 54 -21 45 -51 145 -49 160 1
4 0 9 -1 12 -1 3 -3 24 -5 48 -1 23 -5 45 -8 48 -3 4 -2 15 3 25 7 11 7 20 0
24 -5 3 -7 11 -5 18 2 7 7 48 11 92 10 122 10 123 42 230 48 165 165 414 231
490 28 33 72 105 64 105 -5 0 -3 4 3 8 13 8 106 192 97 192 -3 0 1 7 8 17 8 9
13 19 13 22 -1 6 0 13 9 41 2 8 6 20 7 25 1 6 6 20 11 33 5 12 11 34 14 49 2
15 9 49 14 77 26 132 28 349 5 459 -3 12 -9 47 -15 77 -14 74 -54 189 -95 278
-31 69 -101 191 -114 202 -3 3 -20 25 -37 50 -37 55 -182 204 -238 245 -22 17
-42 32 -45 35 -15 16 -125 83 -197 118 -82 42 -253 106 -253 95 0 -3 -7 0 -15
7 -9 7 -18 10 -21 7 -3 -3 -17 -2 -30 3 -13 5 -45 12 -71 16 -27 3 -68 9 -93
13 -90 13 -296 1 -410 -23 -14 -3 -34 -8 -46 -10 -11 -2 -62 -18 -112 -35
-341 -114 -622 -359 -786 -685 -29 -58 -61 -132 -71 -164 -9 -31 -19 -64 -22
-72 -4 -8 -7 -17 -8 -20 -4 -11 -19 -86 -21 -105 -1 -11 -3 -20 -4 -20 -13 0
-19 -332 -7 -425 14 -112 81 -325 128 -408 11 -18 19 -40 19 -48 0 -8 4 -14
10 -14 5 0 12 -11 16 -25 3 -14 10 -25 15 -25 5 0 9 -4 9 -9 0 -5 24 -45 54
-88 29 -43 62 -93 72 -112 11 -18 24 -41 29 -50 161 -258 326 -637 365 -836 6
-33 13 -71 16 -85 11 -57 58 -223 96 -335 39 -119 46 -135 87 -227 11 -26 21
-50 21 -53 0 -24 154 -310 237 -440 35 -55 69 -109 76 -119 25 -39 177 -235
225 -290 60 -68 314 -318 366 -361 27 -22 55 -46 62 -52 7 -7 15 -13 18 -13 3
0 14 -7 23 -16 42 -37 83 -68 163 -122 89 -60 230 -194 230 -218 0 -8 4 -14 9
-14 20 0 131 -241 131 -285 0 -12 4 -25 9 -30 19 -20 38 -201 35 -345 -2 -153
-4 -169 -34 -320 -30 -149 -30 -152 -36 -215 -10 -102 -3 -333 10 -354 3 -4 7
-27 11 -51 10 -65 10 -64 16 -75 6 -9 19 -54 25 -84 14 -73 150 -331 209 -398
5 -6 26 -30 45 -54 183 -222 472 -398 745 -454 125 -26 179 -31 311 -29 82 1
167 5 189 8 115 19 255 59 350 101 27 13 54 23 59 23 5 0 12 4 15 9 3 5 22 17
41 26 152 75 360 264 467 425 96 143 189 358 210 482 7 44 11 65 13 65 6 0 13
129 13 225 0 170 -10 247 -49 373 -13 43 -23 81 -22 85 1 4 -2 18 -5 32 -26
103 -40 382 -23 465 4 17 9 48 12 70 12 79 65 225 115 315 53 95 162 206 260
265 63 38 195 137 306 231 60 50 342 330 378 375 11 13 38 47 60 74 21 28 42
52 45 55 11 10 140 191 140 196 0 3 11 19 25 36 14 16 25 36 25 44 0 8 4 14 9
14 5 0 13 9 16 20 3 11 12 26 18 32 15 16 36 55 119 218 115 225 186 411 254
660 2 8 10 42 18 75 14 56 18 75 31 143 3 15 9 36 12 47 4 11 7 22 8 25 5 28
74 215 98 270 11 25 21 47 21 50 5 29 228 447 246 460 4 3 10 12 14 20 11 23
28 50 64 102 17 26 32 51 32 56 0 6 3 12 8 14 11 5 88 157 121 240 28 71 58
171 67 228 3 14 6 30 9 37 22 64 23 412 0 475 -5 14 -14 59 -20 93 -14 90
-111 307 -189 423 -28 42 -55 82 -61 91 -32 50 -222 227 -295 275 -47 31 -89
60 -95 64 -19 15 -181 90 -230 107 -105 36 -217 61 -320 71 -52 5 -214 11
-218 8z m269 -247 c11 -3 52 -13 90 -22 155 -39 339 -132 444 -225 14 -12 34
-30 45 -39 11 -9 44 -43 73 -75 140 -155 232 -343 278 -571 11 -53 13 -288 3
-350 -15 -93 -56 -229 -94 -312 -69 -149 -199 -316 -319 -408 -21 -17 -44 -35
-50 -40 -30 -27 -170 -105 -189 -105 -8 0 -20 -7 -27 -15 -7 -8 -23 -15 -36
-15 -13 0 -24 -5 -24 -12 0 -6 -2 -9 -6 -6 -3 3 -26 -1 -52 -9 -164 -52 -380
-62 -557 -24 -83 17 -175 45 -175 53 0 4 -7 8 -15 8 -25 0 -144 62 -227 119
-110 75 -279 253 -315 331 -3 8 -17 32 -30 52 -20 33 -81 174 -87 203 -2 6 -8
30 -15 55 -50 175 -47 420 7 600 9 30 17 57 17 60 2 8 24 59 52 120 69 153
235 346 379 442 71 47 202 113 285 142 57 21 180 46 190 40 4 -2 10 0 13 5 6
9 304 8 342 -2z m-4821 -100 c227 -58 401 -160 556 -326 83 -90 119 -134 119
-149 0 -6 4 -12 9 -14 16 -6 98 -175 124 -258 41 -125 56 -220 55 -350 0 -103
-3 -144 -22 -246 -16 -85 -79 -245 -137 -343 -63 -109 -212 -271 -303 -330
-23 -14 -43 -29 -46 -32 -10 -14 -158 -88 -220 -112 -222 -83 -452 -95 -689
-36 -48 12 -92 26 -100 33 -8 6 -17 10 -20 10 -13 -3 -82 28 -176 80 -27 15
-79 49 -85 56 -3 3 -25 21 -50 40 -71 56 -166 160 -229 253 -66 97 -147 293
-165 397 -25 146 -26 321 -1 445 16 83 60 219 78 243 5 6 6 12 1 12 -5 0 -4 4
2 8 6 4 20 28 32 53 75 157 294 385 422 440 14 6 32 16 40 23 13 11 144 70
160 72 8 1 92 25 120 35 14 4 50 11 80 14 30 4 57 8 59 10 2 2 67 2 145 0 109
-2 164 -9 241 -28z m2340 -5461 c22 -3 54 -9 70 -13 17 -4 32 -7 35 -8 50 -10
111 -29 116 -36 3 -5 12 -9 20 -9 28 0 194 -90 267 -143 96 -71 237 -212 237
-237 0 -6 4 -10 8 -10 10 0 97 -145 118 -197 8 -21 19 -47 23 -58 17 -38 36
-90 37 -100 0 -5 2 -12 3 -15 5 -11 21 -89 28 -140 8 -55 8 -261 0 -315 -25
-179 -102 -367 -208 -512 -40 -55 -187 -206 -221 -228 -9 -5 -37 -25 -62 -42
-26 -18 -49 -33 -51 -33 -1 0 -31 -16 -64 -34 -34 -19 -61 -32 -61 -29 0 3 -6
1 -12 -4 -25 -19 -140 -54 -235 -72 -96 -18 -330 -23 -393 -7 -14 3 -41 9 -60
13 -46 9 -49 10 -55 13 -3 1 -9 4 -15 5 -5 1 -11 3 -12 4 -2 2 -13 4 -26 7
-40 7 -211 92 -285 141 -121 80 -268 238 -339 362 -56 96 -117 249 -124 306
-2 11 -7 38 -13 59 -5 22 -8 44 -5 48 3 4 1 8 -4 8 -9 0 -9 287 1 325 2 11 8
38 12 60 5 22 9 42 10 45 1 3 7 25 14 50 7 25 16 50 19 55 4 6 7 17 9 25 3 19
70 153 102 205 46 73 170 211 243 270 42 34 133 95 141 95 6 0 18 6 26 14 22
20 163 79 239 100 82 22 94 25 172 32 36 4 66 8 68 9 5 4 184 -3 227 -9z"/>
<path d="M4137 2024 c-1 -1 -27 -5 -57 -8 -115 -11 -239 -63 -334 -141 -67
-54 -125 -116 -126 -132 0 -6 -4 -13 -8 -15 -20 -8 -88 -152 -99 -208 -2 -14
-8 -42 -13 -63 -11 -50 -5 -214 10 -252 6 -16 10 -30 9 -30 -3 0 10 -45 20
-70 93 -225 308 -393 538 -420 72 -9 65 -9 143 -2 110 11 185 33 263 79 26 15
51 28 55 28 12 0 146 131 174 170 129 178 160 445 76 644 -104 245 -338 409
-601 419 -27 2 -49 2 -50 1z m88 -458 c18 -4 78 -38 95 -55 82 -82 88 -214 13
-301 -70 -82 -168 -102 -267 -55 -31 15 -56 30 -56 34 0 4 -8 16 -17 27 -33
37 -46 68 -48 118 -3 67 18 126 63 171 61 62 123 79 217 61z"/>
</g>
</svg>
