<?xml version="1.0" standalone="no"?>
<!DOCTYPE svg PUBLIC "-//W3C//DTD SVG 20010904//EN"
 "http://www.w3.org/TR/2001/REC-SVG-20010904/DTD/svg10.dtd">
<svg version="1.0" xmlns="http://www.w3.org/2000/svg"
 width="700.000000pt" height="700.000000pt" viewBox="0 0 700.000000 700.000000"
 preserveAspectRatio="xMidYMid meet">
<metadata>
Created by potrace 1.11, written by Peter Selinger 2001-2013
</metadata>
<g transform="translate(0.000000,700.000000) scale(0.100000,-0.100000)"
fill="#000000" stroke="none">
<path d="M5450 6995 c-8 -2 -49 -9 -90 -15 -147 -24 -290 -79 -425 -163 -111
-70 -234 -188 -313 -300 -101 -143 -180 -347 -207 -532 -6 -42 -8 -249 -2
-275 2 -8 7 -37 11 -65 21 -138 115 -366 199 -482 69 -96 186 -336 201 -415 2
-13 12 -54 21 -91 25 -109 26 -228 0 -367 -9 -51 -84 -201 -155 -310 -114
-173 -245 -314 -400 -428 -41 -31 -109 -81 -150 -111 -110 -81 -253 -207 -350
-307 -85 -88 -256 -289 -299 -352 l-23 -33 -36 48 c-84 112 -217 260 -316 352
-21 20 -48 45 -60 57 -46 46 -167 143 -271 219 -274 199 -434 379 -575 647
-27 51 -51 104 -54 118 -2 14 -9 45 -15 70 -17 70 -6 291 18 384 42 157 137
364 209 451 38 46 149 282 172 365 174 646 -196 1275 -845 1439 -75 19 -140
25 -255 26 -166 0 -231 -9 -370 -55 -612 -200 -942 -876 -724 -1481 29 -80
107 -229 157 -299 92 -128 248 -422 315 -592 23 -59 60 -180 82 -270 53 -210
83 -308 133 -438 56 -144 209 -449 230 -458 4 -2 7 -8 7 -14 0 -13 172 -262
200 -288 3 -3 32 -36 65 -75 97 -114 277 -287 380 -366 17 -13 32 -26 35 -29
3 -3 50 -38 105 -79 163 -118 223 -187 284 -324 56 -124 72 -205 76 -382 3
-117 -1 -174 -19 -270 -12 -62 -26 -131 -32 -155 -3 -14 -8 -82 -11 -151 -36
-850 861 -1449 1632 -1090 123 58 220 126 321 226 102 101 157 172 214 278 55
102 111 260 125 352 32 204 21 339 -43 555 -29 97 -36 160 -36 320 0 173 20
263 89 407 45 91 113 174 195 235 19 15 64 48 100 75 119 88 210 163 284 232
238 227 311 317 536 661 33 51 130 249 173 355 62 151 110 303 152 478 43 180
86 297 176 482 61 125 231 422 249 435 11 8 100 171 100 184 0 7 4 16 9 22 5
5 21 47 35 93 127 405 15 853 -289 1157 -33 33 -78 73 -100 89 -22 17 -42 32
-45 35 -7 8 -60 42 -90 58 -199 110 -345 151 -555 156 -66 2 -127 2 -135 1z
m360 -226 c41 -11 116 -40 165 -64 297 -144 491 -415 532 -745 13 -105 2 -273
-23 -348 -9 -24 -17 -54 -20 -65 -2 -11 -19 -53 -38 -93 -184 -388 -598 -610
-1011 -544 -69 11 -166 36 -195 50 -8 4 -50 24 -92 45 -213 103 -404 330 -477
569 -30 96 -36 151 -35 301 0 155 22 253 85 384 53 110 86 157 171 247 111
116 243 200 394 248 94 30 116 34 214 42 41 4 76 7 77 8 9 7 192 -19 253 -35z
m-4135 -69 c339 -91 596 -350 686 -690 28 -106 34 -314 12 -412 -70 -315 -260
-555 -537 -683 -188 -87 -407 -111 -607 -66 -258 58 -485 226 -616 456 -43 75
-106 230 -94 230 1 0 -2 12 -8 26 -14 39 -25 152 -23 259 6 404 302 771 707
878 108 28 121 30 270 27 96 -2 151 -9 210 -25z m1993 -4605 c194 -37 359
-124 500 -264 316 -312 369 -808 128 -1185 -126 -198 -304 -328 -551 -406 -88
-27 -297 -38 -401 -21 -342 58 -625 293 -743 618 -28 77 -34 102 -51 213 -10
70 -5 212 10 287 75 381 368 676 750 756 94 20 260 21 358 2z"/>
</g>
</svg>
