<?xml version="1.0" encoding="utf-8"?>
<!-- Generator: Adobe Illustrator 21.1.0, SVG Export Plug-In . SVG Version: 6.00 Build 0)  -->
<svg version="1.1" xmlns="http://www.w3.org/2000/svg" xmlns:xlink="http://www.w3.org/1999/xlink" x="0px" y="0px"
	 viewBox="0 0 500 500" style="enable-background:new 0 0 500 500;" xml:space="preserve">
<style type="text/css">
	.st0{display:none;}
	.st1{display:inline;fill:#373535;}
	.st2{fill:none;stroke:#FFFFFF;stroke-width:10;stroke-linejoin:round;stroke-miterlimit:10;}
	.st3{fill:#FFFFFF;stroke:#FFFFFF;stroke-width:3;stroke-linejoin:round;stroke-miterlimit:10;}
	.st4{fill:#FFFFFF;}
</style>
<g id="bg" class="st0">
	<rect class="st1" width="500" height="500"/>
</g>
<g id="Livello_1">
	<path class="st2" d="M443.3,480.5H19.5v-461h461v423.8C480.5,463.8,463.8,480.5,443.3,480.5z"/>
	<g>
		<path class="st3" d="M408.4,218.2l-0.2,0.1c3.4-5.7,5.5-12.3,5.5-19.4c0-20.7-16.9-37.6-37.6-37.6s-37.6,16.9-37.6,37.6
			c0,7.3,2.1,14,5.7,19.8l-0.2-0.2c0,0,0.1,0.2,0.3,0.4c0.6,1,1.3,1.9,2,2.8c3.6,5.6,9.7,17.5,6,29.6c-3.4,7.7-9.3,16.3-19.9,23.7
			c-10.4,7.3-18.3,15.8-24.2,24.3c-5.8-7.8-13.1-15.4-22.6-22.1c-10.5-7.4-16.5-16.1-19.9-23.7c-3.8-12.1,2.4-24,6-29.6
			c0.7-0.9,1.4-1.8,2-2.8c0.2-0.3,0.3-0.4,0.3-0.4l-0.2,0.2c3.6-5.7,5.7-12.5,5.7-19.8c0-20.7-16.9-37.6-37.6-37.6
			c-20.7,0-37.6,16.9-37.6,37.6c0,7.1,2,13.7,5.5,19.4l-0.2-0.1c0,0,0.4,0.5,0.9,1.3c0.1,0.2,0.3,0.4,0.4,0.6
			c3.3,4.9,11.7,18.5,13.7,30.2l0,0c3.7,16.4,13.4,39,38.6,56.7c0.7,0.5,1.3,1,1.9,1.4l0,0c0,0,12.4,9.1,7.4,31.9
			c-0.7,2.8-1.1,5.8-1.1,8.8c0,20.7,16.9,37.6,37.6,37.6c20.7,0,37.6-16.9,37.6-37.6c0-2.6-0.3-5.1-0.8-7.6l0.1,0.1
			c-0.3-0.9-0.5-1.7-0.7-2.5c-0.1-0.5-0.3-1-0.4-1.5c-4.1-16.8,2.3-25.9,5-28.9c1.6-1.4,3.2-2.7,5.1-4
			c25.2-17.6,34.9-40.2,38.6-56.7l0,0c2-11.7,10.4-25.3,13.7-30.2c0.1-0.2,0.3-0.4,0.4-0.6C408,218.7,408.4,218.2,408.4,218.2z
			 M376.1,167.8c17.2,0,31.1,13.9,31.1,31.1S393.2,230,376.1,230S345,216.1,345,198.9S358.9,167.8,376.1,167.8z M241.9,170.1
			c17.2,0,31.1,13.9,31.1,31.1s-13.9,31.1-31.1,31.1s-31.1-13.9-31.1-31.1S224.7,170.1,241.9,170.1z M309,382.4
			c-17.2,0-31.1-13.9-31.1-31.1c0-17.2,13.9-31.1,31.1-31.1c17.2,0,31.1,13.9,31.1,31.1C340.1,368.5,326.1,382.4,309,382.4z"/>
	</g>
	<path class="st4" d="M112.3,202.8H89.7c-2,0-3.1,2.3-1.8,3.9l54.5,65.3c1.5,1.9,1.5,4.5,0,6.4l-54.5,65.3c-1.3,1.5-0.2,3.9,1.8,3.9
		h22.5c2.8,0,5.5-1.2,7.3-3.4l54.9-65.7c1.5-1.9,1.5-4.5,0-6.4l-54.9-65.7C117.7,204,115.1,202.8,112.3,202.8z"/>
	<rect x="19.5" y="19.5" class="st4" width="461" height="72.7"/>
</g>
</svg>
