<?xml version="1.0" encoding="utf-8"?>
<!-- Generator: Adobe Illustrator 21.1.0, SVG Export Plug-In . SVG Version: 6.00 Build 0)  -->
<svg version="1.1" id="Livello_1" xmlns="http://www.w3.org/2000/svg" xmlns:xlink="http://www.w3.org/1999/xlink" x="0px" y="0px"
	 viewBox="0 0 665.5 153.7" style="enable-background:new 0 0 665.5 153.7;" xml:space="preserve">
<style type="text/css">
	.st0{fill:#FF3333;}
	.st1{fill:#0099FF;}
	.st2{fill:#FFFFFF;}
</style>
<title>logo</title>
<path d="M0.9,153.4L0,0.4l152.9-0.2c4.9,0,8.9,2,8.9,4.4l0.2,32.6c0,7.9-3.5,15.6-10.3,22.6c-2,2.1-2,5.5,0.1,7.5
	c0.3,0.3,0.7,0.6,1.1,0.8c5.8,3.2,9.3,7.4,9.3,11.8l0.4,68.7c0,2.5-4,4.5-8.9,4.5L0.9,153.4z M32,65.6v70.8c0,3,2.4,5.3,5.3,5.3l0,0
	l88-0.1c2.9,0,5.3-1.2,5.3-2.6l0.1-59.8c0-3.1-4-5.7-9.9-6.6L38.1,60.3c-2.9-0.4-5.6,1.6-6.1,4.5C32,65,32,65.3,32,65.6L32,65.6z
	 M36.5,48.7l75.9,11c1.3,0.2,2.7-0.1,3.8-0.9l0.6-0.4c9-6.2,13.7-13.5,13.6-21.1l0.2-23.6c0-1.6-2.5-2.8-5.7-2.8L37.3,11
	c-2.9,0-5.3,2.4-5.3,5.3l-0.1,27.1C31.9,46,33.8,48.3,36.5,48.7L36.5,48.7z"/>
<path d="M486.4,0.4h-142v6c0,2.6,2.1,4.7,4.7,4.7l0,0h44.1c2.9,0,5.3,2.4,5.3,5.3v137.4h33.9l0,0V16.3c0-2.9,2.4-5.3,5.3-5.3h44.1
	c2.6,0,4.7-2.1,4.7-4.7l0,0L486.4,0.4z"/>
<path d="M657.5,66.2c-3.2-2-4.2-6.2-2.2-9.5c0.2-0.3,0.4-0.7,0.7-1c6.1-6.7,9.2-13.9,9.2-21.4L665.5,0l-31.6-0.1l-0.4,34.4v0.1
	c0,7.6-4.8,15-13.7,21.2l0,0c-1.4,1-3.2,1.4-4.9,1.2L541.2,46c-3.4-0.5-5.9-3.4-5.9-6.9v-39h-31.6l-0.1,153h31.6l0.1-87.2
	c0-3.8,3.1-6.9,6.9-6.9c0.3,0,0.7,0,1,0.1l73.5,10.7c10.2,1.5,17.2,6.1,17.2,11.5V153h31.6V77.2C665.4,73.1,662.5,69.2,657.5,66.2z"
	/>
<path class="st0" d="M279.1,25.3c0-12.8,10.3-23.1,23.1-23.1c12.8,0,23.1,10.3,23.1,23.1S315,48.4,302.2,48.4S279.1,38,279.1,25.3z"
	/>
<path class="st1" d="M188.8,26.8c0-12.8,10.3-23.1,23.1-23.1S235,14,235,26.8s-10.3,23.1-23.1,23.1l0,0
	C199.1,49.9,188.8,39.6,188.8,26.8z"/>
<g>
	<path class="st2" d="M233.9,127.9c0-12.8,10.3-23.1,23.1-23.1c12.8,0,23.1,10.3,23.1,23.1S269.8,151,257,151
		C244.3,150.9,233.9,140.6,233.9,127.9z"/>
	<path class="st2" d="M278,127.9c0,11.6-9.4,20.9-20.9,20.9c-11.6,0-20.9-9.4-20.9-20.9c0-11.6,9.4-20.9,20.9-20.9l0,0
		C268.6,106.9,278,116.3,278,127.9"/>
</g>
<circle class="st1" cx="257" cy="128.3" r="12.4"/>
<circle cx="257" cy="128.3" r="4.1"/>
<path d="M323.9,38.3l-0.1,0.1c7.3-11.9,3.5-27.5-8.5-34.7c-11.9-7.3-27.5-3.5-34.7,8.5c-5,8.2-4.9,18.4,0.1,26.5l-0.1-0.1
	c0,0,0.1,0.1,0.2,0.3c0.4,0.7,0.9,1.3,1.3,1.9c2.4,3.7,6.6,11.8,4,19.9c-2.9,6.5-7.5,12-13.4,16c-6.4,4.5-11.9,10-16.3,16.4
	c-4.2-5.8-9.4-10.8-15.2-14.9c-5.9-4-10.5-9.5-13.4-16c-2.5-8.1,1.6-16.2,4-19.9c0.5-0.6,0.9-1.2,1.3-1.9c0.1-0.2,0.2-0.3,0.2-0.3
	l-0.1,0.1c7.4-11.9,3.8-27.5-8.1-34.8c-11.9-7.4-27.5-3.8-34.8,8.1c-5,8.1-5.1,18.3-0.1,26.5l-0.1-0.1c0,0,0.2,0.3,0.6,0.9
	c0.1,0.1,0.2,0.3,0.3,0.4c2.2,3.3,7.9,12.4,9.2,20.3l0,0c2.5,11.1,9,26.3,26,38.1c0.4,0.3,0.9,0.6,1.3,1l0,0c0,0,8.4,6.1,5,21.4
	c-3.3,13.6,5.1,27.2,18.6,30.5c13.6,3.3,27.2-5.1,30.5-18.6c0.9-3.6,0.9-7.4,0.2-11l0.1,0.1c-0.2-0.6-0.3-1.1-0.5-1.7
	c-0.1-0.3-0.2-0.7-0.3-1c-2.7-11.3,1.6-17.5,3.3-19.4c1.1-1,2.2-1.9,3.4-2.7c16.9-11.9,23.5-27.1,26-38.1l0,0c1.3-7.9,7-17,9.2-20.3
	c0.1-0.1,0.2-0.3,0.3-0.4C323.7,38.6,323.9,38.3,323.9,38.3z M302.2,4.4c11.6,0,20.9,9.4,20.9,20.9s-9.4,20.9-20.9,20.9
	c-11.6,0-20.9-9.4-20.9-20.9C281.2,13.7,290.6,4.4,302.2,4.4z M211.9,5.9c11.6,0,20.9,9.4,20.9,20.9c0,11.6-9.4,20.9-20.9,20.9
	c-11.6,0-20.9-9.4-20.9-20.9l0,0C190.9,15.3,200.3,5.9,211.9,5.9L211.9,5.9z M257,148.8c-11.6,0-20.9-9.4-20.9-20.9
	c0-11.6,9.4-20.9,20.9-20.9c11.6,0,20.9,9.4,20.9,20.9S268.6,148.8,257,148.8L257,148.8z"/>
</svg>
