<svg xmlns="http://www.w3.org/2000/svg" width="266.63672" height="67.33122" viewBox="0 0 266.63672 67.33122">
  <title>blender-logo</title>
  <g>
    <path d="M57.709,57.15514a9.78381,9.78381,0,0,1,3.55112-6.9268,12.04586,12.04586,0,0,1,15.279,0,9.794,9.794,0,0,1,3.5511,6.92386,9.61725,9.61725,0,0,1-2.9897,7.43555,12.00717,12.00717,0,0,1-16.40474,0A9.60249,9.60249,0,0,1,57.709,57.15514Z" transform="translate(-14.5 -19.29719)" style="fill: #fff"/>
    <path d="M39.88763,62.74129a20.45789,20.45789,0,0,0,.88156,4.826,25.45851,25.45851,0,0,0,5.49991,9.52321,28.41527,28.41527,0,0,0,9.62561,6.91217,31.47227,31.47227,0,0,0,25.27011-.04386,28.61383,28.61383,0,0,0,9.61825-6.93992,25.67305,25.67305,0,0,0,5.49848-9.54079,23.97133,23.97133,0,0,0,.86256-10.61535,24.58865,24.58865,0,0,0-3.50728-9.5978,26.77758,26.77758,0,0,0-6.39753-7.054l.00584-.00442L61.35222,20.3253c-.02338-.01753-.04238-.03654-.06724-.0526a5.75625,5.75625,0,0,0-6.42388.00732c-1.88887,1.3216-2.10524,3.50723-.424,4.88586l-.00732.00732,10.79956,8.782-32.91619.03511h-.04386c-2.72073.0029-5.33619,1.788-5.85371,4.04378-.53218,2.29824,1.31576,4.20462,4.14466,4.21484l-.00437.01026L47.23985,42.227,17.46836,65.079c-.038.0278-.07895.057-.114.08481C14.5459,67.31435,13.638,70.89029,15.407,73.15342c1.79529,2.30114,5.61248,2.30551,8.45017.01316l16.2483-13.298A25.42394,25.42394,0,0,0,39.88763,62.74129Zm41.7523,6.0116a18.7785,18.7785,0,0,1-26.22038.04243,15.59191,15.59191,0,0,1-3.57889-5.60225,14.548,14.548,0,0,1-.82162-6.26015,14.78081,14.78081,0,0,1,1.79384-5.89319,16.24173,16.24173,0,0,1,3.9824-4.73528,18.92255,18.92255,0,0,1,23.466-.03364,16.179,16.179,0,0,1,3.978,4.72069,14.78834,14.78834,0,0,1,1.80114,5.89025,14.58362,14.58362,0,0,1-.82454,6.25578A15.66355,15.66355,0,0,1,81.63994,68.75289Z" transform="translate(-14.5 -19.29719)" style="fill: #fff"/>
    <path d="M235.09972,57.10982c.25-2.78941,2.40639-4.55842,5.70019-4.55842,3.29822,0,5.45315,1.769,5.70313,4.55842Zm11.06563,6.88732c-.84355,2.06722-2.83185,3.29089-5.53208,3.29089-3.38156,0-5.65785-2.11108-5.74994-5.44583h19.43977v-.981c0-8.3537-4.90344-13.04806-13.68983-13.04806-8.53208,0-13.69135,4.73822-13.69135,12.1694,0,7.47651,5.23971,12.20742,13.69135,12.20742,5.07156,0,9.00425-1.73827,11.42818-4.79377Z" transform="translate(-14.5 -19.29719)" style="fill: #fff"/>
    <path d="M148.84509,57.123c.25734-2.78941,2.41371-4.55842,5.71045-4.55842,3.29237,0,5.44731,1.769,5.70023,4.55842ZM159.918,64.01029c-.845,2.07307-2.8318,3.29674-5.53792,3.29674-3.37567,0-5.65781-2.11692-5.747-5.45315h19.4354v-.97512c0-8.35807-4.902-13.05386-13.68841-13.05386-8.53641,0-13.68546,4.73965-13.68546,12.17083,0,7.47651,5.23677,12.20742,13.68546,12.20742,5.07008,0,9.00572-1.73243,11.43407-4.79234Z" transform="translate(-14.5 -19.29719)" style="fill: #fff"/>
    <rect x="117.44333" y="23.46491" width="7.01015" height="28.67937" style="fill: #fff"/>
    <path d="M169.81264,50.38187h7.04959v1.70757a11.83866,11.83866,0,0,1,8.87268-4.01019c3.89325,0,6.84057,1.34646,8.36245,3.63885,1.27048,1.89322,1.35377,4.1783,1.35377,7.18115V71.44147h-7.05981V60.42119c0-4.57306-.91957-6.68414-4.93414-6.68414-4.05695,0-6.595,2.41665-6.595,6.47359V71.44147h-7.04959Z" transform="translate(-14.5 -19.29719)" style="fill: #fff"/>
    <path d="M218.15406,60.33785c0,3.92537-2.62278,6.49987-6.6812,6.49987-4.06132,0-6.6841-2.48679-6.6841-6.45454,0-4.02625,2.58767-6.51161,6.6841-6.51161C215.53128,53.87157,218.15406,56.40078,218.15406,60.33785Zm0-9.00134c-1.78213-1.9108-4.36105-2.959-7.94579-2.959-7.73382,0-13.01444,4.76892-13.01444,11.91648,0,7.0072,5.24408,11.90916,12.88724,11.90916,3.50434,0,6.07737-.886,8.073-2.87276v2.11108h7.054v-30.498l-7.054,1.81867Z" transform="translate(-14.5 -19.29719)" style="fill: #fff"/>
    <path d="M115.92014,53.87157c4.09938,0,6.67683,2.48536,6.67683,6.51161,0,3.96776-2.61841,6.45454-6.67683,6.45454-4.05548,0-6.67531-2.5745-6.67531-6.49987C109.24483,56.40078,111.86466,53.87157,115.92014,53.87157ZM109.24483,42.7621l-7.057-1.81867v30.498h7.057V69.33039c1.98535,1.98678,4.5628,2.87276,8.07,2.87276,7.64753,0,12.8843-4.902,12.8843-11.90916,0-7.14756-5.28205-11.91648-13.0115-11.91648-3.59205,0-6.1695,1.0482-7.94284,2.959Z" transform="translate(-14.5 -19.29719)" style="fill: #fff"/>
    <path d="M256.06285,71.44147V50.38187h7.054V51.683c2.11251-2.5438,4.34789-3.80986,6.89022-3.80986.50438,0,1.13886.08187,1.98245.16521v6.00428a17.8185,17.8185,0,0,0-2.24122-.08919c-4.10081,0-6.63145,2.70464-6.63145,7.304V71.44147Z" transform="translate(-14.5 -19.29719)" style="fill: #fff"/>
    <g style="isolation: isolate">
      <path d="M275.65625,46.33691a2.70846,2.70846,0,0,1,.36426-1.3667,2.67633,2.67633,0,0,1,1.002-1.00537,2.74616,2.74616,0,0,1,2.74023-.00391,2.67066,2.67066,0,0,1,1.00586,1.002,2.7374,2.7374,0,0,1-.97656,3.73145,2.73844,2.73844,0,0,1-4.13574-2.35742Zm.44824,0a2.29017,2.29017,0,0,0,3.44336,1.98047,2.28572,2.28572,0,0,0,.83691-.83838,2.29308,2.29308,0,0,0-3.127-3.13184,2.2829,2.2829,0,0,0-.83984.83447A2.23636,2.23636,0,0,0,276.10449,46.33691Zm3.40332-.64893a.839.839,0,0,1-.55762.84912l.86426,1.44678h-.76953l-.69922-1.26074h-.32812v1.26074h-.68848V44.69336h.9541a1.43109,1.43109,0,0,1,.92969.248A.92087.92087,0,0,1,279.50781,45.688Zm-1.49023.50684h.251a.581.581,0,0,0,.4082-.12744.47013.47013,0,0,0,.13867-.36475.439.439,0,0,0-.13281-.36621.68725.68725,0,0,0-.4209-.10352h-.24414Z" transform="translate(-14.5 -19.29719)" style="fill: #fff"/>
    </g>
  </g>
</svg>
