<svg xmlns="http://www.w3.org/2000/svg" width="43.57747" height="35.39857" viewBox="0 0 43.57747 35.39857">
  <title>blender-logo-black</title>
  <path d="M43.77943,52.20413a5.1437,5.1437,0,0,1,1.867-3.64166,6.33294,6.33294,0,0,1,8.03271,0A5.14906,5.14906,0,0,1,55.546,52.20258a5.05613,5.05613,0,0,1-1.57179,3.90913,6.3126,6.3126,0,0,1-8.62455,0A5.04837,5.04837,0,0,1,43.77943,52.20413Z" transform="translate(-21.06292 -32.30071)" style="fill: #221f20"/>
  <path d="M34.4101,55.141a10.75539,10.75539,0,0,0,.46347,2.5372,13.38447,13.38447,0,0,0,2.8915,5.00669,14.93889,14.93889,0,0,0,5.06053,3.634A16.5461,16.5461,0,0,0,56.111,66.29577a15.04333,15.04333,0,0,0,5.05665-3.64856,13.49722,13.49722,0,0,0,2.89075-5.01593,12.60259,12.60259,0,0,0,.45348-5.58087,12.92712,12.92712,0,0,0-1.8439-5.0459A14.078,14.078,0,0,0,59.30455,43.296l.00307-.00232L45.6948,32.84138c-.01229-.00922-.02228-.01921-.03535-.02765a3.02626,3.02626,0,0,0-3.37726.00385,1.53354,1.53354,0,0,0-.22291,2.56867l-.00385.00385,5.67771,4.617-17.30521.01846h-.02306a3.155,3.155,0,0,0-3.0775,2.126c-.27979,1.20827.69174,2.21052,2.179,2.21589l-.0023.00539,8.77137-.01692L22.62349,56.37c-.02.01462-.04151.03-.05993.04459-1.47651,1.13061-1.95382,3.01061-1.0238,4.20042.94385,1.20979,2.95068,1.21209,4.44255.00692l8.54231-6.99123A13.36616,13.36616,0,0,0,34.4101,55.141Zm21.95067,3.16051a9.87252,9.87252,0,0,1-13.785.02231,8.19719,8.19719,0,0,1-1.88155-2.9453,7.64842,7.64842,0,0,1-.432-3.29118,7.77079,7.77079,0,0,1,.94308-3.09826,8.53888,8.53888,0,0,1,2.09369-2.4895A9.94826,9.94826,0,0,1,55.636,46.48185a8.50585,8.50585,0,0,1,2.09137,2.48184,7.77477,7.77477,0,0,1,.94692,3.09671,7.66711,7.66711,0,0,1-.43349,3.28889A8.23486,8.23486,0,0,1,56.36077,58.30148Z" transform="translate(-21.06292 -32.30071)" style="fill: #221f20"/>
</svg>
