<svg xmlns="http://www.w3.org/2000/svg" width="15.37317mm" height="12.48784mm" viewBox="0 0 43.57749 35.39859">
  <title>blender-icon-white</title>
  <path d="M22.71651,19.9034a5.1437,5.1437,0,0,1,1.867-3.64166,6.33294,6.33294,0,0,1,8.03271,0,5.14906,5.14906,0,0,1,1.86686,3.64011A5.05614,5.05614,0,0,1,32.91129,23.811a6.3126,6.3126,0,0,1-8.62455,0A5.04837,5.04837,0,0,1,22.71651,19.9034Z" transform="translate(0 0)" style="fill: #f4f4f4"/>
  <path d="M13.34718,22.84028a10.75538,10.75538,0,0,0,.46347,2.5372,13.38449,13.38449,0,0,0,2.8915,5.00669,14.93882,14.93882,0,0,0,5.06053,3.634,16.5461,16.5461,0,0,0,13.2854-.02312,15.04329,15.04329,0,0,0,5.05665-3.64856,13.49722,13.49722,0,0,0,2.89075-5.01593,12.60258,12.60258,0,0,0,.45348-5.58087,12.92712,12.92712,0,0,0-1.8439-5.0459,14.07805,14.07805,0,0,0-3.36343-3.70851l.00307-.00232L24.63188.54066C24.61959.53144,24.6096.52145,24.59653.513a3.02626,3.02626,0,0,0-3.37726.00385,1.53354,1.53354,0,0,0-.22291,2.56867l-.00385.00385,5.67771,4.617L9.365,7.72484H9.342a3.155,3.155,0,0,0-3.0775,2.126c-.27979,1.20827.69174,2.21052,2.179,2.21589l-.0023.00539,8.77137-.01692L1.56057,24.06928c-.02.01462-.04151.03-.05993.04459C.02413,25.24448-.45318,27.12447.47684,28.31429c.94385,1.20979,2.95068,1.21209,4.44255.00692L13.4617,21.33A13.367,13.367,0,0,0,13.34718,22.84028Zm21.95067,3.16051a9.87252,9.87252,0,0,1-13.785.02231,8.1972,8.1972,0,0,1-1.88155-2.9453,7.64847,7.64847,0,0,1-.432-3.29118,7.77077,7.77077,0,0,1,.94308-3.09826,8.53889,8.53889,0,0,1,2.09369-2.4895,9.94826,9.94826,0,0,1,12.337-.01773A8.50583,8.50583,0,0,1,36.66445,16.663a7.77477,7.77477,0,0,1,.94692,3.09671,7.66712,7.66712,0,0,1-.43349,3.28889,8.2349,8.2349,0,0,1-1.88,2.95219Z" transform="translate(0 0)" style="fill: #f4f4f4"/>
</svg>
