<svg xmlns="http://www.w3.org/2000/svg" width="20.78434" height="71.70213" viewBox="0 0 20.78434 71.70213">
  <title>Tavola disegno 1</title>
  <path d="M8.06856,72.35469V71.03025a6.70216,6.70216,0,0,1,3.2084-5.71949l5.79933-3.54253a6.70216,6.70216,0,0,0,3.2084-5.71949V15.80861a6.70216,6.70216,0,0,0-3.20849-5.71954L11.277,6.54677A6.70216,6.70216,0,0,1,8.06856.82723v-1.261h-5.5V72.35469Z" style="fill: none"/>
  <path d="M8.56852,72.58589h-1v-1.5557a7.24782,7.24782,0,0,1,3.44775-6.14648l5.79932-3.542a6.24074,6.24074,0,0,0,2.96875-5.293V15.80851A6.2393,6.2393,0,0,0,16.81559,10.516L11.01628,6.97355A7.2472,7.2472,0,0,1,7.56852.82706V-.86475h1V.82706A6.24009,6.24009,0,0,0,11.53776,6.12l5.79932,3.54248a7.2464,7.2464,0,0,1,3.44727,6.146V56.04874a7.24722,7.24722,0,0,1-3.44727,6.14648l-5.79932,3.542a6.24133,6.24133,0,0,0-2.96924,5.293Z" style="fill: #a7a9ab"/>
</svg>
