<?xml version="1.0" encoding="utf-8"?>
<!-- Generator: Adobe Illustrator 21.1.0, SVG Export Plug-In . SVG Version: 6.00 Build 0)  -->
<svg version="1.1" id="Livello_1" xmlns="http://www.w3.org/2000/svg" xmlns:xlink="http://www.w3.org/1999/xlink" x="0px" y="0px"
	 viewBox="0 0 141 153.7" style="enable-background:new 0 0 141 153.7;" xml:space="preserve">
<style type="text/css">
	.st0{fill:#FF3333;}
	.st1{fill:#0099FF;}
	.st2{fill:#FFFFFF;}
	.st3{fill:#111111;}
</style>
<title>logo</title>
<path class="st0" d="M92.6,25.3c0-12.8,10.3-23.1,23.1-23.1c12.8,0,23.1,10.3,23.1,23.1s-10.3,23.1-23.1,23.1S92.6,38,92.6,25.3z"/>
<path class="st1" d="M2.3,26.8C2.3,14,12.6,3.7,25.4,3.7S48.5,14,48.5,26.8S38.2,49.9,25.4,49.9l0,0C12.6,49.9,2.3,39.6,2.3,26.8z"
	/>
<g>
	<path class="st2" d="M47.4,127.9c0-12.8,10.3-23.1,23.1-23.1c12.8,0,23.1,10.3,23.1,23.1S83.3,151,70.5,151
		C57.8,150.9,47.4,140.6,47.4,127.9z"/>
	<path class="st2" d="M91.5,127.9c0,11.6-9.4,20.9-20.9,20.9c-11.6,0-20.9-9.4-20.9-20.9c0-11.6,9.4-20.9,20.9-20.9l0,0
		C82.1,106.9,91.5,116.3,91.5,127.9"/>
</g>
<circle class="st1" cx="70.5" cy="128.3" r="12.4"/>
<circle class="st3" cx="70.5" cy="128.3" r="4.1"/>
<path class="st3" d="M137.4,38.3l-0.1,0.1c7.3-11.9,3.5-27.5-8.5-34.7c-11.9-7.3-27.5-3.5-34.7,8.5c-5,8.2-4.9,18.4,0.1,26.5
	l-0.1-0.1c0,0,0.1,0.1,0.2,0.3c0.4,0.7,0.9,1.3,1.3,1.9c2.4,3.7,6.6,11.8,4,19.9c-2.9,6.5-7.5,12-13.4,16
	c-6.4,4.5-11.9,10-16.3,16.4c-4.2-5.8-9.4-10.8-15.2-14.9c-5.9-4-10.5-9.5-13.4-16c-2.5-8.1,1.6-16.2,4-19.9
	c0.5-0.6,0.9-1.2,1.3-1.9c0.1-0.2,0.2-0.3,0.2-0.3l-0.1,0.1c7.4-11.9,3.8-27.5-8.1-34.8C26.7-2,11.1,1.6,3.8,13.5
	c-5,8.1-5.1,18.3-0.1,26.5l-0.1-0.1c0,0,0.2,0.3,0.6,0.9c0.1,0.1,0.2,0.3,0.3,0.4c2.2,3.3,7.9,12.4,9.2,20.3l0,0
	c2.5,11.1,9,26.3,26,38.1c0.4,0.3,0.9,0.6,1.3,1l0,0c0,0,8.4,6.1,5,21.4c-3.3,13.6,5.1,27.2,18.6,30.5c13.6,3.3,27.2-5.1,30.5-18.6
	c0.9-3.6,0.9-7.4,0.2-11l0.1,0.1c-0.2-0.6-0.3-1.1-0.5-1.7c-0.1-0.3-0.2-0.7-0.3-1c-2.7-11.3,1.6-17.5,3.3-19.4
	c1.1-1,2.2-1.9,3.4-2.7c16.9-11.9,23.5-27.1,26-38.1l0,0c1.3-7.9,7-17,9.2-20.3c0.1-0.1,0.2-0.3,0.3-0.4
	C137.2,38.6,137.4,38.3,137.4,38.3z M115.7,4.4c11.6,0,20.9,9.4,20.9,20.9s-9.4,20.9-20.9,20.9c-11.6,0-20.9-9.4-20.9-20.9
	C94.7,13.7,104.1,4.4,115.7,4.4z M25.4,5.9c11.6,0,20.9,9.4,20.9,20.9c0,11.6-9.4,20.9-20.9,20.9c-11.6,0-20.9-9.4-20.9-20.9l0,0
	C4.4,15.3,13.8,5.9,25.4,5.9L25.4,5.9z M70.5,148.8c-11.6,0-20.9-9.4-20.9-20.9c0-11.6,9.4-20.9,20.9-20.9
	c11.6,0,20.9,9.4,20.9,20.9S82.1,148.8,70.5,148.8L70.5,148.8z"/>
</svg>
