<svg xmlns="http://www.w3.org/2000/svg" width="1000" height="1000" viewBox="0 0 1000 1000">
  <title>logo</title>
  <rect width="1000" height="1000" style="fill: none"/>
  <path d="M436.67132,765.16286c.34906-6.24595,10.03606-154.02333,139.67458-244.86634,82.17324-57.585,78.96662-139.27182,78.77866-142.72114.02685.52876.05577.8014.05577.8014l126.51555-9.88942c.49364,6.30378,10.42953,155.56-132.524,255.73478-78.18175,54.78423-85.55234,144.72257-85.82807,148.52508l.031-.504Z" style="fill: #221f20"/>
  <path d="M606.72506,272.11657A111.89055,111.89055,0,1,1,718.61613,384.00763,112.01731,112.01731,0,0,1,606.72506,272.11657Z" style="fill: #db3e32"/>
  <path d="M819.93147,272.11644A101.31566,101.31566,0,1,1,718.61581,170.80078,101.31567,101.31567,0,0,1,819.93147,272.11644m21.1503,0a122.466,122.466,0,1,0-122.466,122.466,122.60463,122.60463,0,0,0,122.466-122.466Z" style="fill: #221f20"/>
  <path d="M823.80341,335.067s-40.71432,57.1058-48.82194,104.65151l-48.82194-47.01695Z" style="fill: #221f20"/>
  <path d="M614.0441,335.92973s45.31574,54.82378,26.28047,109.64756L694.78732,414.006Z" style="fill: #221f20"/>
  <path d="M217.98674,386.12845c0-5.83286.24786-9.435.316-10.30664l126.51761,9.88942s.02685-.27264.05577-.80346c-.17763,3.45964-3.39355,85.13821,78.77763,142.72114C553.29229,618.474,562.97929,766.24929,563.32835,772.49524l-126.7035,7.08039.031.504c-.27574-3.80251-7.64633-93.73878-85.82911-148.52508C227.64689,545.23694,217.98674,422.4702,217.98674,386.12845Z" style="fill: #221f20"/>
  <path d="M169.49429,279.45a111.89,111.89,0,1,1,111.89,111.89A112.01642,112.01642,0,0,1,169.49429,279.45Z" style="fill: #4892cb"/>
  <path d="M382.69985,279.45A101.31566,101.31566,0,1,1,281.38419,178.13419,101.31567,101.31567,0,0,1,382.69985,279.45m21.1503,0a122.466,122.466,0,1,0-122.466,122.466,122.60466,122.60466,0,0,0,122.466-122.466Z" style="fill: #221f20"/>
  <path d="M176.19662,342.40048s40.71432,57.1058,48.82194,104.65151L273.84049,400.035Z" style="fill: #221f20"/>
  <path d="M385.95592,343.26323S340.64018,398.087,359.67545,452.91079L305.2127,421.3395Z" style="fill: #221f20"/>
  <path d="M636.09452,633.81494s-40.71432,33.57235-15.879,110.52564l-54.79824-76.9533Z" style="fill: #221f20"/>
  <path d="M356.98014,636.18341s42.77431,30.905,22.9018,109.28664l49.77433-80.29429Z" style="fill: #221f20"/>
  <g>
    <path d="M388.13136,768.70346a111.89107,111.89107,0,1,1,111.8921,111.89A112.01907,112.01907,0,0,1,388.13136,768.70346Z" style="fill: #221f20"/>
    <path d="M601.3388,768.70295A101.31569,101.31569,0,1,1,500.02314,667.38729,101.31567,101.31567,0,0,1,601.3388,768.70295m21.1503,0a122.466,122.466,0,1,0-122.466,122.466,122.60454,122.60454,0,0,0,122.466-122.466Z" style="fill: #221f20"/>
  </g>
  <path d="M388.08592,768.70346a111.89107,111.89107,0,1,1,111.89107,111.89A112.01819,112.01819,0,0,1,388.08592,768.70346Z" style="fill: #e88e3d"/>
  <path d="M601.29258,768.70295A101.31569,101.31569,0,1,1,499.97693,667.38729,101.31567,101.31567,0,0,1,601.29258,768.70295m21.1503,0a122.466,122.466,0,1,0-122.466,122.466,122.60454,122.60454,0,0,0,122.466-122.466Z" style="fill: #221f20"/>
  <circle cx="499.9769" cy="770.81919" r="60.07046" style="fill: #4892cb"/>
  <circle cx="499.9769" cy="770.81919" r="19.62441" style="fill: #010101"/>
</svg>
