<?xml version="1.0" encoding="utf-8"?>
<!-- Generator: Adobe Illustrator 21.1.0, SVG Export Plug-In . SVG Version: 6.00 Build 0)  -->
<svg version="1.1" id="Livello_1" xmlns="http://www.w3.org/2000/svg" xmlns:xlink="http://www.w3.org/1999/xlink" x="0px" y="0px"
	 viewBox="0 0 987.3 823.4" style="enable-background:new 0 0 987.3 823.4;" xml:space="preserve">
<style type="text/css">
	.st0{fill:#221F20;stroke:#221F20;stroke-width:17;stroke-miterlimit:10;}
	.st1{fill:#221F20;}
	.st2{fill:none;}
</style>
<title>nc-logo</title>
<g>
	<path class="st0" d="M637.1,22.3l146.6,146.6l-0.5,616c0,7.4-6,13.4-13.4,13.4H217c-7.4,0-13.4-6-13.4-13.4l0-749.2
		c0-7.4,6-13.4,13.4-13.4H637.1 M637.1,9.3h-420c-14.6,0-26.4,11.8-26.4,26.4l0,749.2c0,14.6,11.8,26.4,26.4,26.4h552.7
		c14.6,0,26.4-11.8,26.4-26.4l0.5-616c0-3.5-1.4-6.8-3.8-9.2L646.3,13.1C643.8,10.7,640.5,9.3,637.1,9.3L637.1,9.3z"/>
</g>
<path class="st1" d="M783.7,168.9H650.5c-7.4,0-13.4-6-13.4-13.4l0,0V22.3L783.7,168.9z"/>
<rect y="9.3" class="st2" width="987.3" height="802"/>
</svg>
