<svg xmlns="http://www.w3.org/2000/svg" width="606.06102" height="802.013" viewBox="0 0 606.06102 802.013">
  <title>nc-logo</title>
  <g>
    <path d="M223.38623,884.21094a19.93925,19.93925,0,0,1-19.9165-19.917l.00391-749.1792a19.93935,19.93935,0,0,1,19.917-19.917H643.42578a6.50184,6.50184,0,0,1,4.59668,1.90381L794.626,243.70605a6.5,6.5,0,0,1,1.9043,4.60156l-.49512,615.999a19.94294,19.94294,0,0,1-19.917,19.9043Z" transform="translate(-196.9695 -88.69775)" style="fill: #78c2ff"/>
    <path d="M643.42615,101.69775,790.03052,248.30226l-.49579,615.99986a13.417,13.417,0,0,1-13.417,13.40863H223.38651a13.4171,13.4171,0,0,1-13.417-13.417l.00426-749.179a13.417,13.417,0,0,1,13.41687-13.417H643.42615m0-13H223.39063a26.44682,26.44682,0,0,0-26.41687,26.417l-.00426,749.17889a26.447,26.447,0,0,0,26.417,26.41711H776.11774a26.45059,26.45059,0,0,0,26.417-26.40027l.49579-615.99773a13.00023,13.00023,0,0,0-3.80762-9.20288L652.61853,92.50538a12.99993,12.99993,0,0,0-9.19238-3.80762Z" transform="translate(-196.9695 -88.69775)" style="fill: #005eff"/>
  </g>
  <path d="M790.03049,248.30221H656.843a13.41693,13.41693,0,0,1-13.41693-13.41693V101.69779Z" transform="translate(-196.9695 -88.69775)" style="fill: #005eff"/>
</svg>
