<svg xmlns="http://www.w3.org/2000/svg" width="429.76081" height="744.74536" viewBox="0 0 429.76081 744.74536">
  <title>paper-clip</title>
  <path d="M515.22791,402.89746a127.79507,127.79507,0,0,0-27.17469-3.08025l-4.92436,21.43408c-.477,2.08261-.4837,4.17865-.81289,6.2747,1.41752-.06046,2.79473-.36278,4.22568-.36278a101.41689,101.41689,0,0,1,22.53249,2.55288,100.6318,100.6318,0,0,1,75.53826,120.60323l-46.07269,200.656c-12.42847,54.06722-66.48226,87.8458-120.60323,75.56513a100.74978,100.74978,0,0,1-75.55169-120.60323l46.08613-200.656a99.93092,99.93092,0,0,1,38.14534-58.0309,141.34469,141.34469,0,0,1,2.19682-33.05974c-32.67009,16.634-58.33321,46.50265-67.16079,84.91l-46.08613,200.656c-15.81439,68.90078,27.35608,137.80156,96.21655,153.60251A126.622,126.622,0,0,0,440.469,856.6107c58.35337,0,111.27852-40.228,124.88938-99.45467L611.431,556.5a128.15618,128.15618,0,0,0-96.20311-153.60251Z" transform="translate(-312.30101 -111.86583)" style="fill: #949598"/>
  <path d="M722.46769,172.01A128.13351,128.13351,0,0,0,488.987,211.35115l-46.08613,200.656a128.151,128.151,0,0,0,96.18968,153.57564,129.89231,129.89231,0,0,0,27.16126,3.20453l4.95124-21.55837c.4837-2.12292.49714-4.25927.82633-6.38891a100.0248,100.0248,0,0,1-26.75817-2.07589h-.01344a100.5871,100.5871,0,0,1-75.53826-120.57636l46.08613-200.656a100.663,100.663,0,0,1,97.8692-78.14488,102.22124,102.22124,0,0,1,22.7206,2.57975A100.60944,100.60944,0,0,1,711.94716,262.543L665.861,463.226c-5.40135,23.50661-19.0458,43.5131-38.17221,57.7521a141.44726,141.44726,0,0,1-2.23713,33.84912c3.48669-1.76686,7.01369-3.42959,10.366-5.529a127.26073,127.26073,0,0,0,56.862-79.89158l46.08613-200.68292A127.32432,127.32432,0,0,0,722.46769,172.01Z" transform="translate(-312.30101 -111.86583)" style="fill: #949598"/>
</svg>
