<?xml version="1.0" encoding="utf-8"?>
<!-- Generator: Adobe Illustrator 21.1.0, SVG Export Plug-In . SVG Version: 6.00 Build 0)  -->
<svg version="1.1" id="Livello_1" xmlns="http://www.w3.org/2000/svg" xmlns:xlink="http://www.w3.org/1999/xlink" x="0px" y="0px"
	 viewBox="0 0 429.8 744.7" style="enable-background:new 0 0 429.8 744.7;" xml:space="preserve">
<style type="text/css">
	.st0{fill:#141414;}
</style>
<title>paper-clip</title>
<path class="st0" d="M202.9,291c-8.9-2-18-3-27.2-3.1l-4.9,21.4c-0.5,2.1-0.5,4.2-0.8,6.3c1.4-0.1,2.8-0.4,4.2-0.4
	c7.6,0,15.1,0.9,22.5,2.6c54.2,12.4,88,66.4,75.5,120.6l-46.1,200.7c-12.4,54.1-66.5,87.8-120.6,75.6
	c-54.1-12.5-87.9-66.4-75.6-120.6l46.1-200.7c5.4-23.3,18.9-43.9,38.1-58c-0.6-11.1,0.2-22.2,2.2-33.1
	c-32.7,16.6-58.3,46.5-67.2,84.9L3.3,587.9c-15.8,68.9,27.4,137.8,96.2,153.6c9.4,2.2,19,3.3,28.7,3.3c58.4,0,111.3-40.2,124.9-99.5
	l46.1-200.7C315,375.7,271.9,306.9,202.9,291C202.9,291,202.9,291,202.9,291L202.9,291z"/>
<path class="st0" d="M410.2,60.1C372.6,0.2,293.5-18,233.6,19.6c-28.8,18-49.3,46.8-56.9,79.9l-46.1,200.7
	c-15.8,69,27.2,137.7,96.2,153.6c8.9,2,18,3.1,27.2,3.2l5-21.6c0.5-2.1,0.5-4.3,0.8-6.4c-9,0.5-18-0.2-26.8-2.1h0
	c-54.1-12.4-88-66.4-75.5-120.5c0,0,0,0,0,0l46.1-200.7c10.5-45.6,51-78,97.9-78.1c7.6,0,15.3,0.9,22.7,2.6
	c54.2,12.4,88,66.4,75.6,120.6c0,0,0,0,0,0l-46.1,200.7c-5.4,23.5-19,43.5-38.2,57.8c0.6,11.3-0.1,22.7-2.2,33.8
	c3.5-1.8,7-3.4,10.4-5.5c28.9-18,49.3-46.7,56.9-79.9l46.1-200.7C434.2,123.7,428.3,88.9,410.2,60.1z"/>
</svg>
