<svg xmlns="http://www.w3.org/2000/svg" width="100" height="68.96011" viewBox="0 0 100 68.96011">
  <title>vtk-logo</title>
  <g>
    <rect width="100" height="68.96011" style="fill: none"/>
    <g>
      <polygon points="29.039 16.041 18.201 38.07 11.079 8.621 0 8.621 10.714 52.919 10.896 52.919 21.793 52.919 21.975 52.919 40.118 16.041 29.039 16.041" style="fill: #fff"/>
      <polygon points="69.706 16.041 43.717 16.041 39.312 24.713 46.889 24.713 41.955 52.919 51.47 52.919 56.403 24.713 65.301 24.713 69.706 16.041" style="fill: #fff"/>
      <polygon points="100 16.079 89.252 16.041 80.266 29.022 78.983 29.022 81.254 16.041 73.13 16.079 68.997 24.713 64.063 52.919 74.803 52.919 77.366 38.269 78.592 38.192 84.23 61.451 95.066 61.451 88.371 33.259 100 16.079" style="fill: #fff"/>
    </g>
  </g>
</svg>
