<svg xmlns="http://www.w3.org/2000/svg" width="50.37986" height="54.76341" viewBox="0 0 50.37986 54.76341">
  <title>white-logo-small</title>
  <circle cx="41.33538" cy="9.04451" r="8.26348" style="fill: #f33"/>
  <circle cx="9.04448" cy="9.58609" r="8.26344" style="fill: #09f"/>
  <g>
    <circle cx="25.19162" cy="45.71894" r="8.2635" style="fill: none"/>
    <path d="M127.6865,50.972a7.48248,7.48248,0,1,1-7.48247-7.48247A7.48247,7.48247,0,0,1,127.6865,50.972" transform="translate(-95.01239 -5.25307)" style="fill: none"/>
  </g>
  <circle cx="25.18822" cy="45.87523" r="4.43639" style="fill: #09f"/>
  <circle cx="25.18822" cy="45.87523" r="1.44932"/>
  <path d="M144.11619,18.94664l-.03876.02286a9.04426,9.04426,0,1,0-15.40862.08338l-.044-.04253s.03395.04266.08133.10406q.22174.35038.474.67765c.86639,1.33778,2.3433,4.21109,1.4389,7.1236a13.61749,13.61749,0,0,1-4.77837,5.71076,23.48888,23.48888,0,0,0-5.83338,5.8591,23.44966,23.44966,0,0,0-5.44335-5.3176,13.615,13.615,0,0,1-4.77856-5.71171c-.90383-2.9122.573-5.785,1.43915-7.12262q.252-.32772.47383-.67743c.04744-.06147.08152-.10419.08152-.10419l-.04408.04256a9.04481,9.04481,0,1,0-15.4085-.08338l-.03883-.0229s.0857.12135.22162.32359c.03085.04662.06131.0933.093.13931.78463,1.18454,2.81079,4.44971,3.291,7.26592l.00785-.00751a22.41951,22.41951,0,0,0,9.2835,13.63359c.16075.11261.31225.22963.465.34608l-.01058-.00421s2.99517,2.18261,1.77795,7.66536a9.03956,9.03956,0,1,0,17.64064.29132l.02217.031c-.067-.20765-.11458-.40194-.169-.60107-.03363-.12192-.064-.24493-.10254-.36476-.98173-4.03184.55775-6.24052,1.19132-6.94379a14.28967,14.28967,0,0,1,1.2188-.9615,22.42166,22.42166,0,0,0,9.28452-13.6328l.00684.00665c.48022-2.816,2.50614-6.081,3.29089-7.2657.0318-.0462.06239-.093.09336-.13985C144.03055,19.0679,144.11619,18.94664,144.11619,18.94664ZM136.34778,6.8151a7.48247,7.48247,0,1,1-7.4825,7.48247A7.4825,7.4825,0,0,1,136.34778,6.8151Zm-32.29092.5416a7.48247,7.48247,0,1,1-7.48244,7.48247A7.48244,7.48244,0,0,1,104.05686,7.3567Zm16.14372,51.09779a7.48247,7.48247,0,1,1,7.4825-7.48247A7.48248,7.48248,0,0,1,120.20058,58.45448Z" transform="translate(-95.01239 -5.25307)" style="fill: #fff"/>
</svg>
