<svg xmlns="http://www.w3.org/2000/svg" xmlns:xlink="http://www.w3.org/1999/xlink" viewBox="0 0 500 500"><defs><style>.cls-1{fill:url(#linear-gradient);}.cls-2{fill:#383d42;}.cls-3{fill:#2c3135;}.cls-4{fill:#485056;}.cls-5{fill:url(#linear-gradient-2);}.cls-6{fill:url(#linear-gradient-3);}.cls-7{fill:url(#linear-gradient-4);}.cls-8{fill:#2b3033;}</style><linearGradient id="linear-gradient" x1="70.4" y1="418.62" x2="429.6" y2="418.62" gradientUnits="userSpaceOnUse"><stop offset="0" stop-color="#1f2327"/><stop offset="1" stop-color="#13181b"/></linearGradient><linearGradient id="linear-gradient-2" x1="109.98" y1="60.03" x2="398.04" y2="60.03" gradientUnits="userSpaceOnUse"><stop offset="0" stop-color="#6e7680"/><stop offset="0.06" stop-color="#6c747d"/><stop offset="0.4" stop-color="#646c75"/><stop offset="1" stop-color="#626a73"/></linearGradient><linearGradient id="linear-gradient-3" x1="159.78" y1="270.46" x2="200.02" y2="270.46" gradientUnits="userSpaceOnUse"><stop offset="0" stop-color="#2c3135"/><stop offset="0.08" stop-color="#303539"/><stop offset="0.32" stop-color="#363b40"/><stop offset="1" stop-color="#383d42"/></linearGradient><linearGradient id="linear-gradient-4" x1="89.37" y1="216.61" x2="415.1" y2="216.61" xlink:href="#linear-gradient-2"/></defs><title>book-l</title><g id="Layer_6" data-name="Layer 6"><path class="cls-1" d="M157,493.26C193.61,513,409.16,459.4,426.32,429.89s-36.65-79-76.58-88.54S56.18,366.53,71,395.17,123.19,475,157,493.26Z"/><polygon class="cls-2" points="200.02 418.62 191.79 112.49 405.85 73.5 405.85 363.68 200.02 418.62"/><polygon class="cls-3" points="109.1 85.58 340.85 34.43 343.82 7.26 191.79 34.43 100.82 61.18 109.1 85.58"/><polygon class="cls-4" points="111.15 87.88 340.85 34.43 388.85 74.16 159.82 118.71 111.15 87.88"/><path class="cls-3" d="M97.53,74.37a1.05,1.05,0,0,1,1.88-.72c7.28,9.77,34.34,43.71,60.41,45.06,3.81.19,7.36,307,7.36,307s-54.25-29.41-69.41-61Z"/><path class="cls-5" d="M112.32,90.47,110,80.69C333,27.26,338.79,29.14,340.61,29.76c6.86,2.5,10.37,5.35,18.87,13.88,8,8,23.5,19.28,38.56,25L394.51,78c-16.58-6.25-33.11-18.2-42.16-27.28-8.45-8.49-10.55-9.84-15.17-11.51C329,39.39,198.05,69.92,112.32,90.47Z"/><polygon class="cls-6" points="163.36 427.87 159.78 119.99 197.36 113.05 200.02 416.68 163.36 427.87"/><path class="cls-7" d="M167.14,430.72a5.48,5.48,0,0,1-.78,0c-12.26-2.05-70.2-48.42-73.51-65-3.12-15.44-5.91-175.21-.09-300.55-.23-4.74,4.42-7.67,6-8.65C127,38.69,337.68-2.67,346.54,3c5.12,3.29,6.11,14.15,2.95,32.27l-9.9-1.73c1.49-8.62,2-17.81,1.27-21.47-27.66.67-221.74,39-237.84,53.57,4,15,47.42,48,56.81,48,4.16,0,40.24-7.57,75.13-14.87C366.79,71.23,402.46,65.2,408.64,69.32c4.62,3.07,10.36,6.91,2.77,273.9-.33,11.5-.54,18.9-.54,20.46a6.61,6.61,0,0,1-2.64,5.13C392.56,382.09,185,430.71,167.14,430.72ZM102.05,83.06c-4.9,124.42-1.82,268.45.64,280.68s57.28,55.62,65.32,57c16.23.6,214.44-47.59,232.84-59,.07-3.21.26-9.77.51-18.85,5.66-199.48,3.77-255.22.95-265.34-12.19-1-107.9,19-165.28,31.06-47.39,9.92-72.36,15.09-77.2,15.09C148.88,123.74,117.79,102.31,102.05,83.06Z"/><path class="cls-8" d="M219.47,234.21s-5.35-72.17-1-76.51,133.24-30.39,136.71-27.35,5.21,74.65,3,76.82S222.08,236.81,219.47,234.21Z"/></g></svg>