<?xml version="1.0" encoding="utf-8"?>
<!-- Generator: Adobe Illustrator 27.0.0, SVG Export Plug-In . SVG Version: 6.00 Build 0)  -->
<svg version="1.1" id="Layer_1" xmlns="http://www.w3.org/2000/svg" xmlns:xlink="http://www.w3.org/1999/xlink" x="0px" y="0px"
	 viewBox="0 0 500 500" style="enable-background:new 0 0 500 500;" xml:space="preserve">
<style type="text/css">
	.st0{fill:url(#SVGID_1_);}
	.st1{fill:#363B3F;}
	.st2{fill:#2B3033;}
	.st3{fill:url(#SVGID_00000147220568316229997380000004525110420326505649_);}
</style>
<g id="Layer_6">
	
		<linearGradient id="SVGID_1_" gradientUnits="userSpaceOnUse" x1="-19.2551" y1="76.2279" x2="366.4416" y2="-29.7285" gradientTransform="matrix(0.9862 -0.1657 -0.1657 -0.9862 73.8219 398.1736)">
		<stop  offset="0" style="stop-color:#1F2327"/>
		<stop  offset="1" style="stop-color:#13181B"/>
	</linearGradient>
	<path class="st0" d="M74.9,434.2c100.6,107,340.2,46.5,363.8-59.4c16-71.8-60.5-134.3-209.3-174.3S-13.1,340.6,74.9,434.2z"/>
	<path class="st1" d="M398.1,259.6c12.1-21.7-28.2-100.7-19.3-105c7.1-3.5,129.9,41.3,107.5-57.9c-21.7-95.9-110.4,3.4-117.9,5.3
		c-13.9,3.6-30.8-90-37.2-90s-88,4.8-90.9,14.9s82.5,84.3-0.9,98c-83.4,13.7-38.4-80.6-41.3-92.2S97.2,44.8,89.5,55.9
		c-8.4,12.1,27.7,83.8,15.6,93.9c-5.7,4.8-113.9-47.2-94.6,51.2s97.1,0.5,112.8,5c6.4,1.8,21.6,86.5,29.1,92.2
		c7.8,6,41.1-7.5,95.7-14c4-0.5-40.2,113.7,51,98s7.8-108.3,11.2-108.8C358,266.5,393.1,268.6,398.1,259.6z"/>
	<path class="st2" d="M307.9,150.3C321.2,80.9,276.7,27,276.7,27c-3.6-2.2-28.6,3.4-28.6,3.4s33.7,39.2,35.1,62s-10.3,36-43.1,38.1
		s-60-4.5-59.8-44.2c0.1-28.1,8.9-29.7,9.9-43.8s-89.1,4.4-90.2,10.2s14.4,107.6,5.5,103.6S4.1,121.2,20.2,194.6
		c6.1,27.9,6.1,48.3,31.2,44c33.8-5.8,72.6-40.8,72.6-40.8l32.4,92.8C156.5,290.6,284.9,271.3,307.9,150.3z"/>
	
		<linearGradient id="SVGID_00000053516560762221997480000003577840867090742658_" gradientUnits="userSpaceOnUse" x1="8.2769" y1="304.115" x2="489.86" y2="304.115" gradientTransform="matrix(1 0 0 -1 0 502)">
		<stop  offset="0" style="stop-color:#6E7680"/>
		<stop  offset="6.000000e-02" style="stop-color:#6C747D"/>
		<stop  offset="0.4" style="stop-color:#646C75"/>
		<stop  offset="1" style="stop-color:#626A73"/>
	</linearGradient>
	<path style="fill:url(#SVGID_00000053516560762221997480000003577840867090742658_);" d="M324.2,24.7c2,5.9,4.8,15.5,6.9,23.1
		c12.5,43.9,19.8,66.8,36.6,66.8c1.3,0,2.6-0.2,3.9-0.5c4.3-1.1,7.2-3.8,14.9-11c13-12.1,40-37.2,60.4-37.2c4.5,0,18.4,0,27.5,34.1
		c4.8,17.7,4.2,30.5-1.6,38c-5.6,7.3-17.3,11-34.8,11c-15.3,0-31-2.8-42.6-4.9c-7.1-1.3-11.7-2.1-15.2-2.1l0,0
		c-2.4-0.1-4.7,0.4-6.8,1.4c-13.5,6.6-8.6,21.3,1.1,50.6c4.9,14.6,15.9,47.9,13.4,58c-5.1,1.8-19,2.9-31.5,3.9
		c-13.2,1.1-29.7,2.5-47.7,5.1c-4.3,0.6-7.9,3.4-9.6,7.4c-2.9,6.7,0.2,11.2,5.3,18.7c7.9,11.5,31.9,46.3,23.7,65.7
		c-3.6,8.5-14,14.2-30.9,17.2c-4.6,0.8-9.2,1.3-13.9,1.3c-10.8,0-18.4-2.8-23-8.6c-12.8-16-4.4-53-1.3-66.9
		c2.1-9.4,3.2-14.2-0.9-19.3c-2.4-3-6-4.7-9.8-4.7c-0.5,0-1,0-1.5,0.1c-25.3,3-46.5,7.5-61.9,10.8c-10.2,2.2-19.1,4.1-24.3,4.5
		c-3-8-7.7-26.7-10.9-39.8c-10.4-41.7-13-50.7-22.8-53.4c-1.5-0.4-3-0.6-4.5-0.6c-8.6,0-17.2,6.2-30.3,15.6
		C78,219,59,232.6,45.4,232.6c-4,0-16,0-22.7-34c-3.6-18.3-2.5-31.6,3.1-38.4c4.1-5,11.4-7.5,22.3-7.5c13.5,0,28.5,3.9,39.4,6.7
		c7.4,1.9,12.3,3.1,16.2,3.1c3.4,0.1,6.7-1,9.4-3.2c12.7-10.6,5.9-32.5-3.7-62.8c-3.4-10.9-8.4-26.9-8.8-33.6
		c11.9-6.6,59.3-19.5,83.7-20.7c-0.4,1.4-0.7,2.9-1.1,4.3c-5.5,22-13.8,55.3,2.6,76.3c8.3,10.6,21.2,16,38.4,16
		c5.8,0,11.5-0.6,17.2-1.5c23.6-3.9,38.6-13.1,44.4-27.3c10-24.5-11.2-53.5-25.2-72.6c-1.1-1.5-2.3-3.2-3.5-4.8
		C273.5,28.7,307.8,25.6,324.2,24.7 M331.2,12c-6.5,0-88,4.8-90.9,14.9s82.5,84.3-0.9,98c-5,0.9-10.1,1.3-15.2,1.4
		c-62.4,0-23.5-82.7-26.1-93.5c-0.5-2.2-4.5-3.1-10.6-3.1c-26.1,0-91.8,17.2-98,26.2c-8.4,12.1,27.7,83.8,15.7,93.9
		c-0.4,0.3-0.9,0.4-1.4,0.3c-6.7,0-32.5-9.8-55.6-9.8c-25.2,0-47.2,11.7-37.6,60.7c6.5,33.1,19.7,44,34.9,44
		c28.8,0,65-39.2,76.8-39.2c0.4,0,0.8,0,1.2,0.1c6.4,1.8,21.6,86.5,29.1,92.2c1.4,1,3.5,1.5,6.4,1.5c13.6,0,44.2-10.1,89.3-15.5l0,0
		c3.6,0-34.6,99.5,35,99.5c5.4,0,10.7-0.5,16-1.5c91.2-15.7,7.8-108.3,11.2-108.8c47.6-6.9,82.7-4.7,87.7-13.8
		c12.1-21.7-28.2-100.7-19.3-105c0.5-0.2,0.9-0.2,1.4-0.2c6.8,0,32.8,7,57.7,7c32.1,0,62.6-11.6,48.4-64.6
		c-8.7-32.3-23.4-43.3-39.5-43.3c-33.5,0-73.3,47.3-78.4,48.6c-0.3,0.1-0.5,0.1-0.8,0.1C353.8,102.2,337.5,12.1,331.2,12L331.2,12z"
		/>
</g>
</svg>
