<?xml version="1.0" encoding="utf-8"?>
<!-- Generator: Adobe Illustrator 27.0.0, SVG Export Plug-In . SVG Version: 6.00 Build 0)  -->
<svg version="1.1" id="Layer_1" xmlns="http://www.w3.org/2000/svg" xmlns:xlink="http://www.w3.org/1999/xlink" x="0px" y="0px"
	 viewBox="0 0 500 500" style="enable-background:new 0 0 500 500;" xml:space="preserve">
<style type="text/css">
	.st0{fill:url(#SVGID_1_);}
	.st1{fill:#2F3438;}
	.st2{fill:url(#SVGID_00000110453087370644421150000014325044493696232372_);}
</style>
<g id="Layer_6">
	
		<linearGradient id="SVGID_1_" gradientUnits="userSpaceOnUse" x1="31.0573" y1="227.422" x2="497.8951" y2="227.422" gradientTransform="matrix(1 0 0 -1 0 502)">
		<stop  offset="0" style="stop-color:#1F2327"/>
		<stop  offset="1" style="stop-color:#13181B"/>
	</linearGradient>
	<path class="st0" d="M398.1,493.8c27.3,6.8,144.5-43,81.3-107.1S204.9,221.1,182.9,153.2S28.8-6.6,36.5,112S10.7,287.1,52.8,312
		s58.4-35.4,129.2,16.3S294.8,467.9,398.1,493.8z"/>
	<path class="st1" d="M473.6,339c-32-23.6-247.6-162.5-260-191.9s1.8-100.3-27.4-116S87-0.5,63.9,7.9c-8.3,3-13.1,29.2-8.7,33.6
		c7.7,7.7,56.6,45.7,56.6,45.7s19.2,16.2,9.8,31.1S96,143.8,81.1,131.6s-36.9-29.4-55.5-45.1c-11.1-9.4-25,24.1-23.3,40.6
		s28.8,85.4,41.6,90.2c18.3,6.8,105.5-16.7,115.2-6.6c16.4,17.3,198.2,189.5,224.8,212c44,37.2,68.7,23.2,89.1-7.6
		S505.6,362.6,473.6,339z M449.6,395.5c-7.7,7.2-15.4,18.3-35.4-4.8c-15.3-17.8-17.2-26.8-8.1-35.9s15.8-4.3,31.1,10.5
		S457.3,388.3,449.6,395.5L449.6,395.5z"/>
	
		<linearGradient id="SVGID_00000134243818736390110080000002159110765181950383_" gradientUnits="userSpaceOnUse" x1="2.1244" y1="276.72" x2="493.1811" y2="276.72" gradientTransform="matrix(1 0 0 -1 0 502)">
		<stop  offset="0" style="stop-color:#6E7680"/>
		<stop  offset="6.000000e-02" style="stop-color:#6C747D"/>
		<stop  offset="0.4" style="stop-color:#646C75"/>
		<stop  offset="1" style="stop-color:#626A73"/>
	</linearGradient>
	<path style="fill:url(#SVGID_00000134243818736390110080000002159110765181950383_);" d="M81.7,16.7c27.5,0,76.6,12,99.3,24.2
		c12.4,6.7,13.8,35,15,60c0.9,19.3,1.8,37.5,7.4,50.6c9,21.2,85.8,76,215.4,163.4c22.8,15.4,40.8,27.5,48.3,33
		c21.9,16.2,19.2,26.9-3.4,61.1c-11.4,17.2-21.6,24.9-33.1,24.9c-10.8,0-24-6.6-39.5-19.7C365.7,392.9,183.9,220.8,167,203
		c-5-5.3-13-6-20.1-6c-12.1,0-29.3,2.6-47.5,5.3c-16.9,2.5-34.3,5.1-45.2,5.1c-2,0.1-4-0.1-5.9-0.4c-9.4-8-33.3-65.4-35-81.1
		c-0.9-8.5,4.2-22.6,8.3-28.3c12.1,10.2,25.2,20.7,37,30.1c5.7,4.5,11,8.8,15.6,12.5c5.9,4.9,13.3,7.7,20.9,7.8
		c13.3,0,26.8-8.9,36.1-23.7c11.4-18.2-2.2-37.2-12.4-45.8c-18-14-45.8-36-54-43.4c-0.2-4.4,1.9-13.9,4.2-17.2
		C70.9,17.4,74.9,16.7,81.7,16.7 M81.7,5.6c-7.2,0-13.4,0.7-17.8,2.3c-8.3,3-13.1,29.2-8.7,33.6c7.7,7.7,56.6,45.7,56.6,45.7
		s19.2,16.2,9.8,31.1C115.2,128.8,105.4,137,95,137c-5.1-0.1-10-2-13.9-5.3c-15-12.2-37-29.4-55.5-45.1c-1.1-1-2.6-1.6-4.1-1.6
		c-10.1,0-20.8,27.7-19.2,42.2c1.7,16.5,28.8,85.4,41.6,90.2c2.4,0.9,5.9,1.3,10.3,1.3c23.2,0,70-10.4,92.7-10.4
		c6,0,10.4,0.7,12.1,2.6c16.4,17.3,198.2,189.5,224.8,212c18.6,15.7,33.8,22.3,46.7,22.3c17.5,0,30.6-12.1,42.4-29.9
		c20.4-30.9,32.8-52.5,0.7-76.1S226,176.5,213.5,147.1s1.8-100.3-27.4-116C162.6,18.4,112.3,5.6,81.7,5.6L81.7,5.6z"/>
</g>
</svg>
